<mxfile host="app.diagrams.net" agent="Mozilla/5.0 (Windows NT 10.0; Win64; x64) AppleWebKit/537.36 (KHTML, like Gecko) Chrome/129.0.0.0 Safari/537.36" version="24.7.16">
  <diagram id="C5RBs43oDa-KdzZeNtuy" name="Page-1">
    <mxGraphModel dx="1436" dy="727" grid="1" gridSize="9" guides="1" tooltips="1" connect="1" arrows="1" fold="1" page="1" pageScale="1" pageWidth="1654" pageHeight="2336" math="0" shadow="0">
      <root>
        <mxCell id="WIyWlLk6GJQsqaUBKTNV-0" />
        <mxCell id="WIyWlLk6GJQsqaUBKTNV-1" parent="WIyWlLk6GJQsqaUBKTNV-0" />
        <mxCell id="zkfFHV4jXpPFQw0GAbJ--0" value="User" style="swimlane;fontStyle=2;align=center;verticalAlign=top;childLayout=stackLayout;horizontal=1;startSize=26;horizontalStack=0;resizeParent=1;resizeLast=0;collapsible=1;marginBottom=0;rounded=0;shadow=0;strokeWidth=1;" parent="WIyWlLk6GJQsqaUBKTNV-1" vertex="1">
          <mxGeometry x="747" y="36" width="252" height="306" as="geometry">
            <mxRectangle x="240" y="40" width="160" height="26" as="alternateBounds" />
          </mxGeometry>
        </mxCell>
        <mxCell id="zkfFHV4jXpPFQw0GAbJ--1" value="id: String" style="text;align=left;verticalAlign=top;spacingLeft=4;spacingRight=4;overflow=hidden;rotatable=0;points=[[0,0.5],[1,0.5]];portConstraint=eastwest;" parent="zkfFHV4jXpPFQw0GAbJ--0" vertex="1">
          <mxGeometry y="26" width="252" height="26" as="geometry" />
        </mxCell>
        <mxCell id="zkfFHV4jXpPFQw0GAbJ--2" value="name: String" style="text;align=left;verticalAlign=top;spacingLeft=4;spacingRight=4;overflow=hidden;rotatable=0;points=[[0,0.5],[1,0.5]];portConstraint=eastwest;rounded=0;shadow=0;html=0;" parent="zkfFHV4jXpPFQw0GAbJ--0" vertex="1">
          <mxGeometry y="52" width="252" height="28" as="geometry" />
        </mxCell>
        <mxCell id="zkfFHV4jXpPFQw0GAbJ--3" value="email: String&#xa;" style="text;align=left;verticalAlign=top;spacingLeft=4;spacingRight=4;overflow=hidden;rotatable=0;points=[[0,0.5],[1,0.5]];portConstraint=eastwest;rounded=0;shadow=0;html=0;" parent="zkfFHV4jXpPFQw0GAbJ--0" vertex="1">
          <mxGeometry y="80" width="252" height="30" as="geometry" />
        </mxCell>
        <mxCell id="WEhBrtc59TNwi6Hz1ew8-0" value="password: String&#xa;" style="text;align=left;verticalAlign=top;spacingLeft=4;spacingRight=4;overflow=hidden;rotatable=0;points=[[0,0.5],[1,0.5]];portConstraint=eastwest;rounded=0;shadow=0;html=0;" vertex="1" parent="zkfFHV4jXpPFQw0GAbJ--0">
          <mxGeometry y="110" width="252" height="30" as="geometry" />
        </mxCell>
        <mxCell id="WEhBrtc59TNwi6Hz1ew8-2" value="role: enum (Seller/Buyer/Admin)" style="text;align=left;verticalAlign=top;spacingLeft=4;spacingRight=4;overflow=hidden;rotatable=0;points=[[0,0.5],[1,0.5]];portConstraint=eastwest;" vertex="1" parent="zkfFHV4jXpPFQw0GAbJ--0">
          <mxGeometry y="140" width="252" height="26" as="geometry" />
        </mxCell>
        <mxCell id="zkfFHV4jXpPFQw0GAbJ--5" value="account Status: enum (Active/Suspended)" style="text;align=left;verticalAlign=top;spacingLeft=4;spacingRight=4;overflow=hidden;rotatable=0;points=[[0,0.5],[1,0.5]];portConstraint=eastwest;" parent="zkfFHV4jXpPFQw0GAbJ--0" vertex="1">
          <mxGeometry y="166" width="252" height="26" as="geometry" />
        </mxCell>
        <mxCell id="zkfFHV4jXpPFQw0GAbJ--4" value="" style="line;html=1;strokeWidth=1;align=left;verticalAlign=middle;spacingTop=-1;spacingLeft=3;spacingRight=3;rotatable=0;labelPosition=right;points=[];portConstraint=eastwest;" parent="zkfFHV4jXpPFQw0GAbJ--0" vertex="1">
          <mxGeometry y="192" width="252" height="8" as="geometry" />
        </mxCell>
        <mxCell id="WEhBrtc59TNwi6Hz1ew8-3" value="login()" style="text;align=left;verticalAlign=top;spacingLeft=4;spacingRight=4;overflow=hidden;rotatable=0;points=[[0,0.5],[1,0.5]];portConstraint=eastwest;" vertex="1" parent="zkfFHV4jXpPFQw0GAbJ--0">
          <mxGeometry y="200" width="252" height="26" as="geometry" />
        </mxCell>
        <mxCell id="WEhBrtc59TNwi6Hz1ew8-4" value="logOut()" style="text;align=left;verticalAlign=top;spacingLeft=4;spacingRight=4;overflow=hidden;rotatable=0;points=[[0,0.5],[1,0.5]];portConstraint=eastwest;" vertex="1" parent="zkfFHV4jXpPFQw0GAbJ--0">
          <mxGeometry y="226" width="252" height="26" as="geometry" />
        </mxCell>
        <mxCell id="WEhBrtc59TNwi6Hz1ew8-17" value="signUp()**" style="text;align=left;verticalAlign=top;spacingLeft=4;spacingRight=4;overflow=hidden;rotatable=0;points=[[0,0.5],[1,0.5]];portConstraint=eastwest;" vertex="1" parent="zkfFHV4jXpPFQw0GAbJ--0">
          <mxGeometry y="252" width="252" height="26" as="geometry" />
        </mxCell>
        <mxCell id="WEhBrtc59TNwi6Hz1ew8-18" value="updateProfile()" style="text;align=left;verticalAlign=top;spacingLeft=4;spacingRight=4;overflow=hidden;rotatable=0;points=[[0,0.5],[1,0.5]];portConstraint=eastwest;" vertex="1" parent="zkfFHV4jXpPFQw0GAbJ--0">
          <mxGeometry y="278" width="252" height="28" as="geometry" />
        </mxCell>
        <mxCell id="WEhBrtc59TNwi6Hz1ew8-19" value="" style="endArrow=classic;html=1;rounded=0;exitX=0.5;exitY=0;exitDx=0;exitDy=0;entryX=0.494;entryY=1.085;entryDx=0;entryDy=0;entryPerimeter=0;" edge="1" parent="WIyWlLk6GJQsqaUBKTNV-1" source="WEhBrtc59TNwi6Hz1ew8-31" target="WEhBrtc59TNwi6Hz1ew8-18">
          <mxGeometry width="50" height="50" relative="1" as="geometry">
            <mxPoint x="576" y="414" as="sourcePoint" />
            <mxPoint x="882" y="342" as="targetPoint" />
          </mxGeometry>
        </mxCell>
        <mxCell id="WEhBrtc59TNwi6Hz1ew8-31" value="Seller" style="swimlane;fontStyle=2;align=center;verticalAlign=top;childLayout=stackLayout;horizontal=1;startSize=26;horizontalStack=0;resizeParent=1;resizeLast=0;collapsible=1;marginBottom=0;rounded=0;shadow=0;strokeWidth=1;" vertex="1" parent="WIyWlLk6GJQsqaUBKTNV-1">
          <mxGeometry x="747" y="414" width="252" height="261" as="geometry">
            <mxRectangle x="240" y="40" width="160" height="26" as="alternateBounds" />
          </mxGeometry>
        </mxCell>
        <mxCell id="WEhBrtc59TNwi6Hz1ew8-32" value="sellerId: String" style="text;align=left;verticalAlign=top;spacingLeft=4;spacingRight=4;overflow=hidden;rotatable=0;points=[[0,0.5],[1,0.5]];portConstraint=eastwest;" vertex="1" parent="WEhBrtc59TNwi6Hz1ew8-31">
          <mxGeometry y="26" width="252" height="26" as="geometry" />
        </mxCell>
        <mxCell id="WEhBrtc59TNwi6Hz1ew8-33" value="products: List &lt;Product&gt;" style="text;align=left;verticalAlign=top;spacingLeft=4;spacingRight=4;overflow=hidden;rotatable=0;points=[[0,0.5],[1,0.5]];portConstraint=eastwest;rounded=0;shadow=0;html=0;" vertex="1" parent="WEhBrtc59TNwi6Hz1ew8-31">
          <mxGeometry y="52" width="252" height="28" as="geometry" />
        </mxCell>
        <mxCell id="WEhBrtc59TNwi6Hz1ew8-34" value="rating: float" style="text;align=left;verticalAlign=top;spacingLeft=4;spacingRight=4;overflow=hidden;rotatable=0;points=[[0,0.5],[1,0.5]];portConstraint=eastwest;rounded=0;shadow=0;html=0;" vertex="1" parent="WEhBrtc59TNwi6Hz1ew8-31">
          <mxGeometry y="80" width="252" height="30" as="geometry" />
        </mxCell>
        <mxCell id="WEhBrtc59TNwi6Hz1ew8-35" value="bankDetail: String" style="text;align=left;verticalAlign=top;spacingLeft=4;spacingRight=4;overflow=hidden;rotatable=0;points=[[0,0.5],[1,0.5]];portConstraint=eastwest;rounded=0;shadow=0;html=0;" vertex="1" parent="WEhBrtc59TNwi6Hz1ew8-31">
          <mxGeometry y="110" width="252" height="30" as="geometry" />
        </mxCell>
        <mxCell id="WEhBrtc59TNwi6Hz1ew8-38" value="" style="line;html=1;strokeWidth=1;align=left;verticalAlign=middle;spacingTop=-1;spacingLeft=3;spacingRight=3;rotatable=0;labelPosition=right;points=[];portConstraint=eastwest;" vertex="1" parent="WEhBrtc59TNwi6Hz1ew8-31">
          <mxGeometry y="140" width="252" height="8" as="geometry" />
        </mxCell>
        <mxCell id="WEhBrtc59TNwi6Hz1ew8-39" value="addProduct()" style="text;align=left;verticalAlign=top;spacingLeft=4;spacingRight=4;overflow=hidden;rotatable=0;points=[[0,0.5],[1,0.5]];portConstraint=eastwest;" vertex="1" parent="WEhBrtc59TNwi6Hz1ew8-31">
          <mxGeometry y="148" width="252" height="26" as="geometry" />
        </mxCell>
        <mxCell id="WEhBrtc59TNwi6Hz1ew8-40" value="updateProduct()" style="text;align=left;verticalAlign=top;spacingLeft=4;spacingRight=4;overflow=hidden;rotatable=0;points=[[0,0.5],[1,0.5]];portConstraint=eastwest;" vertex="1" parent="WEhBrtc59TNwi6Hz1ew8-31">
          <mxGeometry y="174" width="252" height="26" as="geometry" />
        </mxCell>
        <mxCell id="WEhBrtc59TNwi6Hz1ew8-41" value="removeProduct()" style="text;align=left;verticalAlign=top;spacingLeft=4;spacingRight=4;overflow=hidden;rotatable=0;points=[[0,0.5],[1,0.5]];portConstraint=eastwest;" vertex="1" parent="WEhBrtc59TNwi6Hz1ew8-31">
          <mxGeometry y="200" width="252" height="26" as="geometry" />
        </mxCell>
        <mxCell id="WEhBrtc59TNwi6Hz1ew8-42" value="viewReport()Â " style="text;align=left;verticalAlign=top;spacingLeft=4;spacingRight=4;overflow=hidden;rotatable=0;points=[[0,0.5],[1,0.5]];portConstraint=eastwest;" vertex="1" parent="WEhBrtc59TNwi6Hz1ew8-31">
          <mxGeometry y="226" width="252" height="28" as="geometry" />
        </mxCell>
        <mxCell id="WEhBrtc59TNwi6Hz1ew8-43" value="" style="endArrow=classic;html=1;rounded=0;exitX=0.541;exitY=-0.008;exitDx=0;exitDy=0;exitPerimeter=0;" edge="1" parent="WIyWlLk6GJQsqaUBKTNV-1" source="WEhBrtc59TNwi6Hz1ew8-44">
          <mxGeometry width="50" height="50" relative="1" as="geometry">
            <mxPoint x="891" y="414" as="sourcePoint" />
            <mxPoint x="873" y="342" as="targetPoint" />
          </mxGeometry>
        </mxCell>
        <mxCell id="WEhBrtc59TNwi6Hz1ew8-44" value="Buyer" style="swimlane;fontStyle=2;align=center;verticalAlign=top;childLayout=stackLayout;horizontal=1;startSize=26;horizontalStack=0;resizeParent=1;resizeLast=0;collapsible=1;marginBottom=0;rounded=0;shadow=0;strokeWidth=1;" vertex="1" parent="WIyWlLk6GJQsqaUBKTNV-1">
          <mxGeometry x="1152" y="414" width="252" height="234" as="geometry">
            <mxRectangle x="240" y="40" width="160" height="26" as="alternateBounds" />
          </mxGeometry>
        </mxCell>
        <mxCell id="WEhBrtc59TNwi6Hz1ew8-45" value="buyerId: String" style="text;align=left;verticalAlign=top;spacingLeft=4;spacingRight=4;overflow=hidden;rotatable=0;points=[[0,0.5],[1,0.5]];portConstraint=eastwest;" vertex="1" parent="WEhBrtc59TNwi6Hz1ew8-44">
          <mxGeometry y="26" width="252" height="26" as="geometry" />
        </mxCell>
        <mxCell id="WEhBrtc59TNwi6Hz1ew8-46" value="paymentMethod: String" style="text;align=left;verticalAlign=top;spacingLeft=4;spacingRight=4;overflow=hidden;rotatable=0;points=[[0,0.5],[1,0.5]];portConstraint=eastwest;rounded=0;shadow=0;html=0;" vertex="1" parent="WEhBrtc59TNwi6Hz1ew8-44">
          <mxGeometry y="52" width="252" height="28" as="geometry" />
        </mxCell>
        <mxCell id="WEhBrtc59TNwi6Hz1ew8-47" value="orderHistory: List &lt;Order&gt;" style="text;align=left;verticalAlign=top;spacingLeft=4;spacingRight=4;overflow=hidden;rotatable=0;points=[[0,0.5],[1,0.5]];portConstraint=eastwest;rounded=0;shadow=0;html=0;" vertex="1" parent="WEhBrtc59TNwi6Hz1ew8-44">
          <mxGeometry y="80" width="252" height="30" as="geometry" />
        </mxCell>
        <mxCell id="WEhBrtc59TNwi6Hz1ew8-49" value="" style="line;html=1;strokeWidth=1;align=left;verticalAlign=middle;spacingTop=-1;spacingLeft=3;spacingRight=3;rotatable=0;labelPosition=right;points=[];portConstraint=eastwest;" vertex="1" parent="WEhBrtc59TNwi6Hz1ew8-44">
          <mxGeometry y="110" width="252" height="8" as="geometry" />
        </mxCell>
        <mxCell id="WEhBrtc59TNwi6Hz1ew8-50" value="browseProduct()" style="text;align=left;verticalAlign=top;spacingLeft=4;spacingRight=4;overflow=hidden;rotatable=0;points=[[0,0.5],[1,0.5]];portConstraint=eastwest;" vertex="1" parent="WEhBrtc59TNwi6Hz1ew8-44">
          <mxGeometry y="118" width="252" height="26" as="geometry" />
        </mxCell>
        <mxCell id="WEhBrtc59TNwi6Hz1ew8-51" value="searchProduct()" style="text;align=left;verticalAlign=top;spacingLeft=4;spacingRight=4;overflow=hidden;rotatable=0;points=[[0,0.5],[1,0.5]];portConstraint=eastwest;" vertex="1" parent="WEhBrtc59TNwi6Hz1ew8-44">
          <mxGeometry y="144" width="252" height="26" as="geometry" />
        </mxCell>
        <mxCell id="WEhBrtc59TNwi6Hz1ew8-52" value="placeOrder()" style="text;align=left;verticalAlign=top;spacingLeft=4;spacingRight=4;overflow=hidden;rotatable=0;points=[[0,0.5],[1,0.5]];portConstraint=eastwest;" vertex="1" parent="WEhBrtc59TNwi6Hz1ew8-44">
          <mxGeometry y="170" width="252" height="26" as="geometry" />
        </mxCell>
        <mxCell id="WEhBrtc59TNwi6Hz1ew8-53" value="viewOrderHistory()Â " style="text;align=left;verticalAlign=top;spacingLeft=4;spacingRight=4;overflow=hidden;rotatable=0;points=[[0,0.5],[1,0.5]];portConstraint=eastwest;" vertex="1" parent="WEhBrtc59TNwi6Hz1ew8-44">
          <mxGeometry y="196" width="252" height="28" as="geometry" />
        </mxCell>
        <mxCell id="WEhBrtc59TNwi6Hz1ew8-56" value="" style="endArrow=classic;html=1;rounded=0;exitX=0.5;exitY=0;exitDx=0;exitDy=0;entryX=0.5;entryY=1.085;entryDx=0;entryDy=0;entryPerimeter=0;" edge="1" parent="WIyWlLk6GJQsqaUBKTNV-1" source="WEhBrtc59TNwi6Hz1ew8-57" target="WEhBrtc59TNwi6Hz1ew8-18">
          <mxGeometry width="50" height="50" relative="1" as="geometry">
            <mxPoint x="207" y="414" as="sourcePoint" />
            <mxPoint x="502" y="344" as="targetPoint" />
          </mxGeometry>
        </mxCell>
        <mxCell id="WEhBrtc59TNwi6Hz1ew8-57" value="Admin" style="swimlane;fontStyle=2;align=center;verticalAlign=top;childLayout=stackLayout;horizontal=1;startSize=26;horizontalStack=0;resizeParent=1;resizeLast=0;collapsible=1;marginBottom=0;rounded=0;shadow=0;strokeWidth=1;" vertex="1" parent="WIyWlLk6GJQsqaUBKTNV-1">
          <mxGeometry x="378" y="414" width="252" height="117" as="geometry">
            <mxRectangle x="240" y="40" width="160" height="26" as="alternateBounds" />
          </mxGeometry>
        </mxCell>
        <mxCell id="WEhBrtc59TNwi6Hz1ew8-58" value="adminId: String" style="text;align=left;verticalAlign=top;spacingLeft=4;spacingRight=4;overflow=hidden;rotatable=0;points=[[0,0.5],[1,0.5]];portConstraint=eastwest;" vertex="1" parent="WEhBrtc59TNwi6Hz1ew8-57">
          <mxGeometry y="26" width="252" height="26" as="geometry" />
        </mxCell>
        <mxCell id="WEhBrtc59TNwi6Hz1ew8-62" value="" style="line;html=1;strokeWidth=1;align=left;verticalAlign=middle;spacingTop=-1;spacingLeft=3;spacingRight=3;rotatable=0;labelPosition=right;points=[];portConstraint=eastwest;" vertex="1" parent="WEhBrtc59TNwi6Hz1ew8-57">
          <mxGeometry y="52" width="252" height="8" as="geometry" />
        </mxCell>
        <mxCell id="WEhBrtc59TNwi6Hz1ew8-63" value="suspendAccount()" style="text;align=left;verticalAlign=top;spacingLeft=4;spacingRight=4;overflow=hidden;rotatable=0;points=[[0,0.5],[1,0.5]];portConstraint=eastwest;" vertex="1" parent="WEhBrtc59TNwi6Hz1ew8-57">
          <mxGeometry y="60" width="252" height="26" as="geometry" />
        </mxCell>
        <mxCell id="WEhBrtc59TNwi6Hz1ew8-64" value="userManagement()" style="text;align=left;verticalAlign=top;spacingLeft=4;spacingRight=4;overflow=hidden;rotatable=0;points=[[0,0.5],[1,0.5]];portConstraint=eastwest;" vertex="1" parent="WEhBrtc59TNwi6Hz1ew8-57">
          <mxGeometry y="86" width="252" height="26" as="geometry" />
        </mxCell>
      </root>
    </mxGraphModel>
  </diagram>
</mxfile>
